<mxfile host="65bd71144e">
    <diagram id="c9mU91lhaVfb3YLpKO_U" name="Page-1">
        <mxGraphModel dx="338" dy="140" grid="1" gridSize="10" guides="1" tooltips="1" connect="1" arrows="1" fold="1" page="1" pageScale="1" pageWidth="850" pageHeight="1100" math="0" shadow="0">
            <root>
                <mxCell id="0"/>
                <mxCell id="1" parent="0"/>
                <mxCell id="2" value="&amp;lt;&lt;span style=&quot;color: rgb(0, 0, 0);&quot;&gt;div&lt;/span&gt;&amp;gt;&amp;lt;/div&amp;gt;" style="shape=process;whiteSpace=wrap;html=1;backgroundOutline=1;" vertex="1" parent="1">
                    <mxGeometry x="10" y="50" width="120" height="60" as="geometry"/>
                </mxCell>
                <mxCell id="3" value="&amp;lt;h1&amp;gt;Hello&amp;lt;/h1&amp;gt;" style="shape=process;whiteSpace=wrap;html=1;backgroundOutline=1;" vertex="1" parent="1">
                    <mxGeometry x="150" y="50" width="120" height="60" as="geometry"/>
                </mxCell>
            </root>
        </mxGraphModel>
    </diagram>
</mxfile>